#!OML:ASF E:\acrobat2\Project_11_07_03\Capture day 1\Session 1\Acrobat.ASF
:FULLY-SPECIFIED
:DEGREES
1
root 10.5715 17.9964 -30.3783 22.1579 -85.4346 -19.0062
lowerback -9.4417 -0.129358 2.56969
upperback -3.16778 -0.464615 -1.37403
thorax 1.97222 -0.281972 -2.92184
lowerneck -0.571998 -1.20256 0.930258
upperneck -1.72323 -1.59035 3.47203
head -0.408251 -0.829038 0.907186
rclavicle 3.42904e-015 -4.37326e-015
rhumerus -9.88995 -31.6476 -10.7241
rradius 20.2179
rwrist 17.3785
rhand -14.9648 -44.7892
rfingers 7.12502
rthumb 11.1987 -74.4703
lclavicle 3.42904e-015 -4.37326e-015
lhumerus 0.490223 10.1317 8.31189
lradius 20.3315
lwrist 6.91185
lhand -6.1225 -6.7002
lfingers 7.12502
lthumb 19.7146 22.3201
rfemur 10.9135 13.1769 15.8
rtibia -1.84184
rfoot -27.1644 -29.2502
rtoes 7.9972
lfemur 9.59185 -9.58375 -3.80861
ltibia -2.96689
lfoot -28.2596 4.93713
ltoes 36.1467
2
root 10.5735 17.9984 -30.3778 23.2228 -85.306 -20.1666
lowerback -9.42021 -0.0648323 2.68011
upperback -3.05122 -0.384053 -1.38852
thorax 2.08569 -0.236666 -2.99114
lowerneck -0.89275 -1.28899 0.961181
upperneck -1.61399 -1.71699 3.49397
head -0.320462 -0.88824 0.905328
rclavicle 7.30534e-015 7.95139e-016
rhumerus -10.215 -31.3518 -10.6162
rradius 20.2569
rwrist 17.2157
rhand -14.8169 -45.6587
rfingers 7.12502
rthumb 11.3413 -75.3321
lclavicle 7.30534e-015 7.95139e-016
lhumerus 0.758844 10.0699 8.44841
lradius 20.342
lwrist 6.86804
lhand -5.55448 -6.43965
lfingers 7.12502
lthumb 20.2606 22.5237
rfemur 11.0453 13.3642 16.0881
rtibia -1.84163
rfoot -27.8616 -29.8626
rtoes 5.68751
lfemur 9.48019 -8.98012 -3.49927
ltibia -2.67995
lfoot -27.593 6.46818
ltoes 30.261
3
root 10.5747 17.9999 -30.376 22.9479 -85.2186 -20.0583
lowerback -9.38822 -0.09914 2.39117
upperback -2.89888 -0.402344 -1.1787
thorax 2.22887 -0.238178 -2.61245
lowerneck -1.13167 -1.31458 0.735188
upperneck -1.56566 -1.75473 3.40878
head -0.264835 -0.901763 0.9143
rclavicle 5.66536e-015 0
rhumerus -10.0907 -31.7677 -10.3305
rradius 19.9557
rwrist 17.6913
rhand -14.8112 -44.8216
rfingers 7.12502
rthumb 11.3469 -74.4946
lclavicle 5.66536e-015 0
lhumerus 0.782583 10.413 8.80616
lradius 20.1959
lwrist 6.39226
lhand -4.99332 -6.09669
lfingers 7.12502
lthumb 20.7998 22.8084
rfemur 11.304 13.6238 16.2693
rtibia -1.89625
rfoot -28.6267 -30.1269
rtoes 6.34306
lfemur 9.42036 -8.17591 -3.29942
ltibia -2.42908
lfoot -26.8505 6.75809
ltoes 28.7646
4
root 10.5756 17.9993 -30.3705 24.2113 -85.0892 -21.5389
lowerback -9.52043 -0.189405 1.74021
upperback -2.60475 -0.474137 -0.528417
thorax 2.6141 -0.261915 -1.58231
lowerneck -1.31638 -1.30657 0.27066
upperneck -1.73392 -1.73623 2.99334
head -0.285599 -0.887167 0.862996
rclavicle -1.10325e-014 -7.95139e-016
rhumerus -9.51283 -32.4798 -9.71423
rradius 19.5948
rwrist 18.4489
rhand -14.6028 -43.8853
rfingers 7.12502
rthumb 11.5478 -73.5471
lclavicle -1.10325e-014 -7.95139e-016
lhumerus 0.669948 11.7988 9.75868
lradius 19.8162
lwrist 4.88585
lhand -4.41444 -5.84441
lfingers 7.12502
lthumb 21.3559 22.9988
rfemur 11.6038 13.6127 16.5107
rtibia -1.98708
rfoot -29.0877 -29.9975
rtoes 8.11715
lfemur 9.53791 -7.8815 -3.10372
ltibia -2.36089
lfoot -26.678 6.58754
ltoes 29.7939
5
root 10.5767 17.9937 -30.3625 26.7327 -84.9502 -24.3565
lowerback -9.24592 -0.21111 1.99006
upperback -2.51332 -0.519618 -0.452437
thorax 2.55368 -0.281627 -1.64729
lowerneck -1.30321 -1.3077 0.223912
upperneck -1.81621 -1.73509 3.06842
head -0.311834 -0.887964 0.894678
rclavicle -4.47266e-016 -6.75868e-015
rhumerus -9.46181 -32.9752 -9.78422
rradius 19.4003
rwrist 19.2279
rhand -14.5416 -43.8079
rfingers 7.12502
rthumb 11.6068 -73.4664
lclavicle -4.47266e-016 -6.75868e-015
lhumerus 0.649833 11.5787 9.61825
lradius 19.7717
lwrist 4.73783
lhand -4.29407 -5.62126
lfingers 7.12502
lthumb 21.4715 23.2088
rfemur 11.9718 13.4075 16.8594
rtibia -2.06671
rfoot -29.0488 -30.0336
rtoes 7.26768
lfemur 9.99 -8.61547 -3.10667
ltibia -2.60944
lfoot -27.448 6.72898
ltoes 30.9385
6
root 10.5773 17.9838 -30.354 27.4559 -84.9666 -25.3795
lowerback -8.94614 -0.172009 2.12629
upperback -2.42458 -0.467806 -0.52555
thorax 2.48012 -0.253607 -1.79152
lowerneck -1.33923 -1.33762 0.181121
upperneck -1.82737 -1.77434 3.35714
head -0.305966 -0.909105 0.991083
rclavicle -4.47266e-015 -3.97569e-016
rhumerus -9.62068 -32.7956 -9.86141
rradius 19.3497
rwrist 19.1815
rhand -14.8627 -44.1113
rfingers 7.12502
rthumb 11.2972 -73.7871
lclavicle -4.47266e-015 -3.97569e-016
lhumerus 0.736151 10.7691 9.33699
lradius 19.881
lwrist 5.43182
lhand -4.50439 -5.42836
lfingers 7.12502
lthumb 21.2695 23.4246
rfemur 12.427 13.4625 17.0373
rtibia -2.25176
rfoot -29.0052 -30.4225
rtoes 4.79496
lfemur 10.5306 -9.55534 -3.43217
ltibia -2.88258
lfoot -28.5289 6.89227
ltoes 32.2838
7
root 10.5758 17.9736 -30.345 26.8384 -85.1 -24.9339
lowerback -8.8062 -0.155052 2.10366
upperback -2.36814 -0.435229 -0.631074
thorax 2.46189 -0.236193 -1.88349
lowerneck -1.27855 -1.28554 0.159317
upperneck -1.94138 -1.70064 3.56256
head -0.350243 -0.875836 1.06014
rclavicle 4.87022e-015 8.34896e-015
rhumerus -9.60644 -32.6536 -10.0416
rradius 19.2722
rwrist 19.1658
rhand -14.9735 -44.3548
rfingers 7.12502
rthumb 11.1903 -74.0364
lclavicle 4.87022e-015 8.34896e-015
lhumerus 0.697065 10.1531 9.01022
lradius 20.075
lwrist 6.1896
lhand -4.57707 -5.23698
lfingers 7.12502
lthumb 21.1997 23.6238
rfemur 12.7936 13.7535 17.0289
rtibia -2.51059
rfoot -29.1549 -30.6925
rtoes 3.95192
lfemur 10.9469 -10.4603 -3.94522
ltibia -3.09212
lfoot -29.6849 6.94756
ltoes 33.7449
